<svg width="279" height="165" viewBox="0 0 279 165" fill="none" xmlns="http://www.w3.org/2000/svg">
<path d="M274 144C261.669 145.32 247.5 143 226.237 139.469C205.545 134.981 182.098 127.806 158.006 118.587C133.914 109.369 109.932 98.3965 88.2159 86.6568C66.5 74.9172 47.7313 62.7784 33.5977 51.3322C19.4642 39.8859 10.4089 29.4911 7.24624 21.0824C4.0836 12.6738 7.20602 6.9022 15.7725 3.54714" stroke="black"/>
<path d="M228 155C228 147.083 221.777 140 213 140C221.777 140 228 132.917 228 125C228 132.917 234.223 140 243 140C234.223 140 228 147.083 228 155Z" fill="black"/>
</svg>
