<svg width="293" height="145" viewBox="0 0 293 145" fill="none" xmlns="http://www.w3.org/2000/svg">
<path d="M291.419 131.718C290.614 137.123 285.946 140.813 277.892 142.714C269.865 144.61 258.613 144.692 244.927 143.038C217.561 139.73 180.573 129.491 140.455 113.098C100.337 96.7045 64.7179 77.273 39.5628 59.1197C26.982 50.0407 17.0438 41.2993 10.4695 33.4371C3.8735 25.5491 0.77654 18.6862 1.58124 13.2817C2.38594 7.87714 7.05413 4.18737 15.1078 2.28559C23.1349 0.390052 34.387 0.3077 48.0732 1.96224C75.4386 5.27046 112.427 15.5086 152.545 31.902C192.663 48.2955 228.282 67.727 253.437 85.8803C266.018 94.9593 275.956 103.701 282.53 111.563C289.126 119.451 292.223 126.314 291.419 131.718Z" stroke="black"/>
</svg>
