<svg width="142" height="82" viewBox="0 0 142 82" fill="none" xmlns="http://www.w3.org/2000/svg">
<path d="M141.5 46C141.5 55.6534 133.771 64.5234 120.978 71.0099C108.214 77.4822 90.5443 81.5 71 81.5C51.4557 81.5 33.7863 77.4822 21.0215 71.0099C8.22878 64.5234 0.5 55.6534 0.5 46C0.5 36.3466 8.22878 27.4766 21.0215 20.9901C33.7863 14.5178 51.4557 10.5 71 10.5C90.5443 10.5 108.214 14.5178 120.978 20.9901C133.771 27.4766 141.5 36.3466 141.5 46Z" stroke="black"/>
<path d="M34.5 0C34.5 8.1809 28.0693 15.5 19 15.5C28.0693 15.5 34.5 22.8196 34.5 31C34.5 22.8196 40.9307 15.5 50 15.5C40.9307 15.5 34.5 8.1809 34.5 0Z" fill="black"/>
</svg>
