<svg width="90" height="52" viewBox="0 0 90 52" fill="none" xmlns="http://www.w3.org/2000/svg">
<path d="M89.5 29C89.5 35.0656 84.6785 40.6853 76.5922 44.8182C68.5329 48.9375 57.3641 51.5 45 51.5C32.6359 51.5 21.4671 48.9375 13.4078 44.8182C5.32149 40.6853 0.5 35.0656 0.5 29C0.5 22.9344 5.32149 17.3147 13.4078 13.1818C21.4671 9.06252 32.6359 6.5 45 6.5C57.3641 6.5 68.5329 9.06252 76.5922 13.1818C84.6785 17.3147 89.5 22.9344 89.5 29Z" stroke="black"/>
<path d="M22 0C22 5.0141 17.8512 9.5 12 9.5C17.8512 9.5 22 13.9862 22 19C22 13.9862 26.1488 9.5 32 9.5C26.1488 9.5 22 5.0141 22 0Z" fill="black"/>
</svg>
