<svg width="150" height="71" viewBox="0 0 150 71" fill="none" xmlns="http://www.w3.org/2000/svg">
<path d="M148.969 62.9187C148.668 65.5318 146.469 67.4465 142.445 68.5386C138.448 69.6236 132.785 69.8556 125.847 69.2493C111.978 68.0374 93.1222 63.4867 72.5735 55.8744C52.0248 48.2621 33.7068 39.0419 20.705 30.2994C14.2007 25.9259 9.05253 21.689 5.62189 17.8522C2.16874 13.9903 0.572987 10.67 0.873915 8.05695C1.17484 5.44391 3.37348 3.52922 7.39717 2.43709C11.3946 1.35208 17.0574 1.12013 23.9956 1.72638C37.8647 2.93826 56.7204 7.48904 77.2691 15.1013C97.8178 22.7136 116.136 31.9338 129.138 40.6763C135.642 45.0498 140.79 49.2867 144.221 53.1235C147.674 56.9854 149.27 60.3057 148.969 62.9187Z" stroke="black"/>
</svg>
