<svg width="152" height="83" viewBox="0 0 152 83" fill="none" xmlns="http://www.w3.org/2000/svg">
<path d="M151 61.5C150.6 64.9695 147.242 67.1304 141 68C134.758 68.8695 126.267 69.0129 115.687 67.073C105.106 65.1331 92.8705 61.282 80.5 57C68 52.5 56.5 48 44.833 42.5471C33.6523 36.9544 24.2975 30.5562 17 25C9.70246 19.4438 5.15635 14.6813 3.49988 10.5001C1.84342 6.31881 3.50019 4 7.5 2" stroke="black"/>
<path d="M118.296 76.3948C118.139 71.6472 114.266 67.5235 109.003 67.6981C114.266 67.5235 117.857 63.152 117.7 58.4047C117.857 63.152 121.73 67.276 126.993 67.1015C121.73 67.276 118.139 71.6472 118.296 76.3948Z" fill="black"/>
</svg>
